<svg id="Слой_1" data-name="Слой 1" xmlns="http://www.w3.org/2000/svg" viewBox="0 0 108 32">
  <defs>
    <style>
      .cls-1, .cls-3 {
        fill: #7b2531;
      }

      .cls-2 {
        fill: #fff;
      }

      .cls-2, .cls-3 {
        fill-rule: evenodd;
      }
    </style>
  </defs>
  <title>logo akademia</title>
  <circle class="cls-1" cx="15.97" cy="15.82" r="15.21"/>
  <path class="cls-2" d="M21.81,3.88a.6.6,0,0,1-.12.26,26,26,0,0,0-1.54,3,5.94,5.94,0,0,1,.74.12,2.22,2.22,0,0,1,.6-.7,1.71,1.71,0,0,1,1.07-.4,2.17,2.17,0,0,1,1.09.29,3.06,3.06,0,0,1,.9.78,5.93,5.93,0,0,1,.71,1.08,5.09,5.09,0,0,1,.34,1,1,1,0,0,1,0,.16.15.15,0,0,1,0,.07.54.54,0,0,1-.08-.27,4.84,4.84,0,0,0-1-1.91,3,3,0,0,0-1-.82,1.92,1.92,0,0,0-1.05-.22,1.77,1.77,0,0,0-.92.37,1.32,1.32,0,0,0-.46.62,8.45,8.45,0,0,1,2.3.92,7,7,0,0,1,2,1.77,8.11,8.11,0,0,1,1.26,2.13A5.44,5.44,0,0,1,27.06,14a8.07,8.07,0,0,1-.12,1.36,6.57,6.57,0,0,0,1.19-1.6,5.32,5.32,0,0,0,.31-.78q.06-.24.24-.24c.19,0,.27.12.26.36v.07q-.17,3-7.21,6a23.91,23.91,0,0,0,1.75,2.25l.29-.26A13.84,13.84,0,0,0,26.1,17.5c1.49-1.2-1.38,3.07-2.07,3.84l-.35.36.56.6.19-.2c2.2-2.43,2.52-4.47,2.48-4.77.06,0-.1-.26,0-.24.33-.31.47,2-2.2,5.14a3,3,0,0,1-.24.28c1.33,1.37,2.32,2.06,3,2.06.37,0,.55-.2.55-.6a2.1,2.1,0,0,0-.06-.41,2.42,2.42,0,0,1-.06-.35c0-.14.06-.21.19-.21s.41.31.41.95a1.24,1.24,0,0,1-.31.84,1,1,0,0,1-.79.33c-.83,0-1.95-.69-3.37-2.08l0,0c-.37.36-.77.72-1.17,1.05H22.4c.45-.39.9-.81,1.35-1.25-.21-.21-.41-.42-.61-.64-2,1.66-4.57,2.61-4.93,3.39-.08.17-.05.25.05.27.66-.08,2.91-1.47,3.92-1.43a.74.74,0,0,1,.34.05.25.25,0,0,1,.11.37,6.24,6.24,0,0,1-3.9,2.4,18.9,18.9,0,0,1-6.37.5L12,27.65c2.72.59,10.38-1,10.16-2.88,0-.05-.06-.08-.14-.08-.81.06-3.44,1.38-4,1.35H18c-.28,0-.51-.33.13-.84A46,46,0,0,0,22.93,22c-.57-.64-1.14-1.32-1.7-2.07a16.18,16.18,0,0,1-3.39,4.2A7.49,7.49,0,0,1,13,26.17a3.17,3.17,0,0,1-1.84-.5,1.83,1.83,0,0,1-.85-1.62c0-1.12.75-2.35,2.26-3.7s2.74-2,3.82-2c.15,0,.22.06.22.17s-.11.18-.34.26a9.67,9.67,0,0,0-4.27,3,3.84,3.84,0,0,0-1,2.38c0,1,.57,1.51,1.71,1.51a6.82,6.82,0,0,0,4.71-2.3,18.46,18.46,0,0,0,3.15-4.36,6.1,6.1,0,0,1-1.12-2,2.63,2.63,0,0,1,.14-.73c.09-.33.2-.49.31-.49s.09,0,.12.12a18,18,0,0,0,1,2.15,12.81,12.81,0,0,0,1.19-4.71q0-1.14-.69-1.14a1.71,1.71,0,0,0-.79.26,5,5,0,0,1-.5.26c-.11,0-.16-.07-.16-.21s.27-.42.81-.65A3.43,3.43,0,0,1,22,11.68c.81,0,1.22.58,1.22,1.74a13.15,13.15,0,0,1-1.41,5.25,17.56,17.56,0,0,0,4.91-3.1A6.2,6.2,0,0,0,26.6,13a7.94,7.94,0,0,0-1.4-2.55,7.94,7.94,0,0,0-4.16-3,1.9,1.9,0,0,0,0,1,2.89,2.89,0,0,0,.53,1,4.06,4.06,0,0,0,.81.75,10,10,0,0,0,1.12.61,12,12,0,0,1,1.08.58,3.06,3.06,0,0,1,.73.67,4.61,4.61,0,0,1,1,3.44c0,.12,0,.2-.05.24a.42.42,0,0,1-.05-.22A4.38,4.38,0,0,0,25.3,13a2.5,2.5,0,0,0-.71-.63,11.74,11.74,0,0,0-1.12-.59,10.66,10.66,0,0,1-1.21-.66,3.87,3.87,0,0,1-.89-.83,3.34,3.34,0,0,1-.5-.88,2.8,2.8,0,0,1-.2-1,2.14,2.14,0,0,1,.15-.94c-.25,0-.5-.1-.74-.13a39.17,39.17,0,0,0-1.76,5.18c.72.22,1.08.43,1.08.62s-.09.24-.27.24l-.43-.16L18.18,13a20.66,20.66,0,0,0-.69,4.54c0,.54.08.81.23.81a1.08,1.08,0,0,0,.59-.3,1.54,1.54,0,0,1,.44-.3c.14,0,.22.09.22.27s-.16.35-.47.53a1.57,1.57,0,0,1-.78.28q-.9,0-.9-1.5a25.07,25.07,0,0,1,.59-4.47,24.71,24.71,0,0,0-2.81-.19c-.48.59-1.11,1.31-1.89,2.15a25.3,25.3,0,0,1-2.93,2.82A6.38,6.38,0,0,1,6,19a3.43,3.43,0,0,1-2.07-.57A2.09,2.09,0,0,1,3,16.56,3.56,3.56,0,0,1,4.17,14a5.44,5.44,0,0,1,2.48-1.43,30.61,30.61,0,0,1,7.61-.64q1.56-1.81,3.13-3.85c.29-.41.73-1,1.34-1.79a.26.26,0,0,1,.21-.12c.21,0,.31.1.31.29a.32.32,0,0,1-.05.17c-.09.14-.58.8-1.48,2-1,1.38-1.87,2.5-2.53,3.34a15,15,0,0,1,2.34.33A37.7,37.7,0,0,1,19.25,6.6q.29-.73,1-2.1a2.09,2.09,0,0,1,.64-.5,2,2,0,0,1,.74-.33.19.19,0,0,1,.22.21ZM18.71,28a18.9,18.9,0,0,0,5.56-2.61c-1,.81-5.73,2.58-5.56,2.61ZM16.11,4c-.16,0,2.33.9,3.43,1.62A8.09,8.09,0,0,0,16.11,4ZM10.23,7a5.24,5.24,0,0,0-1.89.37,3.3,3.3,0,0,0-1.23.81,2.58,2.58,0,0,0-.69,1.22,2.37,2.37,0,0,0,.09,1.39,1.77,1.77,0,0,0,.79.92A2.65,2.65,0,0,0,8.54,12a2.9,2.9,0,0,0,1.23-.17,3.74,3.74,0,0,0,1.61-1c.13-.18.19-.29.17-.34a.61.61,0,0,0-.2.2,2.27,2.27,0,0,1-.59.53,3.94,3.94,0,0,1-.91.48,3.16,3.16,0,0,1-1.28.21,2.39,2.39,0,0,1-1.17-.34,1.81,1.81,0,0,1-.81-1.86A1.94,1.94,0,0,1,7,8.87a3.43,3.43,0,0,1,.73-.64,4.29,4.29,0,0,1,.85-.44,6.23,6.23,0,0,1,1.56-.39,2.63,2.63,0,0,0,.16,1.26,2.16,2.16,0,0,0,1,1.18,3.36,3.36,0,0,0,1.63.39,4.77,4.77,0,0,0,1.72-.32A4.06,4.06,0,0,0,16,9.13,2.67,2.67,0,0,0,16.78,8a1.66,1.66,0,0,0,0-1.22A1.67,1.67,0,0,0,16.14,6a1.85,1.85,0,0,0-.92-.32,2.23,2.23,0,0,0-.9.12,2.38,2.38,0,0,0-1.05.76,2.52,2.52,0,0,0-.53,1.2A5.18,5.18,0,0,0,10.49,7,4,4,0,0,1,13,5a5.73,5.73,0,0,1,4.82.34c.23.11.36.17.39.15s-.11-.13-.25-.2a7.28,7.28,0,0,0-1-.53,7.16,7.16,0,0,0-1.26-.4,5.84,5.84,0,0,0-1.46-.13,4.94,4.94,0,0,0-1.5.3,5.24,5.24,0,0,0-1.06.54,3.55,3.55,0,0,0-.72.64,3,3,0,0,0-.44.63,6,6,0,0,0-.27.63Zm4.42,2.81a4,4,0,0,0,1.18-.7,2.47,2.47,0,0,0,.75-1A1.47,1.47,0,0,0,16.6,7a1.35,1.35,0,0,0-.54-.68,1.9,1.9,0,0,0-1.68-.2,2.58,2.58,0,0,0-1.09.73,2.09,2.09,0,0,0-.45,1,.74.74,0,0,1,.42.39.48.48,0,0,1,0,.29c0,.1-.07.16-.14.18s-.11,0-.2-.06a.6.6,0,0,1-.19-.25.8.8,0,0,1,0-.51,3.71,3.71,0,0,0-1.23-.4,4.84,4.84,0,0,0-1.14-.07,2.44,2.44,0,0,0,.13,1.37,1.78,1.78,0,0,0,.55.74A2.71,2.71,0,0,0,12,10a3.84,3.84,0,0,0,1.25.11,4.92,4.92,0,0,0,1.4-.31Zm-1.06,2.93h-.66a26.06,26.06,0,0,0-6.21.55,4.83,4.83,0,0,0-2.08,1.17,2.86,2.86,0,0,0-1,2.1,1.3,1.3,0,0,0,.67,1.19,2.5,2.5,0,0,0,1.41.36,6.24,6.24,0,0,0,3.55-1.19,18.81,18.81,0,0,0,2.84-2.58C12.59,13.81,13.09,13.28,13.59,12.69Z"/>
  <g>
    <path class="cls-3" d="M70.89,16V16c-.09,1.55-2,3.14-5.69,4.75a20.18,20.18,0,0,0,2,2.46c1.1,1.17,1.92,1.76,2.46,1.76.29,0,.44-.16.44-.47a1.76,1.76,0,0,0-.05-.33,2.41,2.41,0,0,1,0-.28c0-.11,0-.17.15-.17s.32.25.32.76a1,1,0,0,1-.24.66.82.82,0,0,1-.62.26c-.66,0-1.54-.55-2.66-1.64a22.92,22.92,0,0,1-2.17-2.49,12.49,12.49,0,0,1-2.67,3.32,6,6,0,0,1-3.83,1.64,2.44,2.44,0,0,1-1.45-.4,1.45,1.45,0,0,1-.68-1.28c0-.88.6-1.85,1.79-2.92a4.92,4.92,0,0,1,3-1.56c.11,0,.17,0,.17.13s-.09.14-.27.21a7.57,7.57,0,0,0-3.37,2.39,3.1,3.1,0,0,0-.76,1.88c0,.8.46,1.19,1.36,1.19a5.36,5.36,0,0,0,3.71-1.81,14.18,14.18,0,0,0,2.49-3.45,4.73,4.73,0,0,1-.88-1.56,2.08,2.08,0,0,1,.11-.58c.07-.25.16-.38.24-.38s.07,0,.1.09a14.87,14.87,0,0,0,.79,1.7,10.17,10.17,0,0,0,.94-3.72q0-.9-.54-.9a1.4,1.4,0,0,0-.63.21,3.3,3.3,0,0,1-.39.2c-.09,0-.13-.05-.13-.16s.21-.34.64-.51a2.6,2.6,0,0,1,.88-.21c.64,0,1,.46,1,1.37a10.43,10.43,0,0,1-1.11,4.15q3.88-1.77,5-3.84a4.78,4.78,0,0,0,.24-.63c0-.12.11-.18.19-.18s.22.09.21.28Zm7,6.77c0-.08,0-.12-.07-.12s-.07,0-.12.1q-2,2.5-3.63,2.54a5.32,5.32,0,0,0,1.7-2.05,5.67,5.67,0,0,0,.78-2.59c0-.59-.2-.88-.6-.88s-1,.4-1.64,1.2a13,13,0,0,0-1.17,1.78q0-.18,0-.54c0-.25,0-.43,0-.56,0-.85-.21-1.28-.64-1.28s-.59,0-.59.08a.35.35,0,0,0,.11.19.49.49,0,0,1,.1.32A3.79,3.79,0,0,1,71.36,23a.23.23,0,0,0,0,.15c0,.09,0,.13.11.13s.43-.39.9-1.17c0,.34,0,.74,0,1.19v.11c-.81,1.12-1.63,2.23-2.43,3.34-1.13,1.67-1.7,2.81-1.7,3.43,0,.46.16.7.48.7.59,0,1.35-.77,2.29-2.3a20.4,20.4,0,0,0,1.59-3.17,3.58,3.58,0,0,0,.56.13h.49c.23,0,.4,0,.51,0a3.69,3.69,0,0,0,2-.9,5.89,5.89,0,0,0,1.62-1.62.76.76,0,0,0,.11-.32ZM75.73,21a5.54,5.54,0,0,1-.65,2.34,3.56,3.56,0,0,1-1.53,1.79,3.9,3.9,0,0,1-.66-.72,12.26,12.26,0,0,1,.9-2.2,3.77,3.77,0,0,1,1.44-1.76.57.57,0,0,1,.18,0c.22,0,.32.19.32.58Zm-3.56,3.43a.05.05,0,0,0,0,0s-.11.06-.2.19l-1.36,2a18,18,0,0,0-1,1.71,5.6,5.6,0,0,0-.7,1.74c0,.11,0,.17.12.17.55,0,1.31-.91,2.28-2.72a12.06,12.06,0,0,0,.81-2.47,1.1,1.1,0,0,1,0-.18.85.85,0,0,1,.11-.42Zm11.1-1.58a.48.48,0,0,1-.11.26,4.61,4.61,0,0,1-1.56,1.72,1.59,1.59,0,0,1-.68.17c-.77,0-1.15-.54-1.15-1.62a3.82,3.82,0,0,1,0-.57c-.85,1.5-1.59,2.24-2.25,2.24-.39,0-.58-.21-.58-.64a4.44,4.44,0,0,1,.94-2.36,4.06,4.06,0,0,1,1.83-1.69,1.57,1.57,0,0,1,.62-.13,1.06,1.06,0,0,1,1,.47.33.33,0,0,1,.06.13s0,0-.13.06a.3.3,0,0,0-.19.13,4.28,4.28,0,0,0-.45,2.2c0,.91.19,1.36.58,1.36s.67-.3,1.18-.91a7.21,7.21,0,0,1,.82-.92s0,0,0,.1Zm-2.77-2A10.85,10.85,0,0,1,79,23.65q-.66.87-1.08.87c-.17,0-.26-.13-.26-.4a4,4,0,0,1,1.15-2.28,2.19,2.19,0,0,1,1.56-1l.17,0Zm7,1.86s0-.05-.07-.05-.2.07-.32.22c-.93,1.17-1.82,1.76-2.68,1.76q-1,0-1-1.17A2.9,2.9,0,0,1,84,22a1.51,1.51,0,0,1,1.23-.88c.32,0,.49.13.49.39a.76.76,0,0,1-.07.27.81.81,0,0,0-.06.24c0,.06,0,.09.07.09s.26-.15.44-.46a1.53,1.53,0,0,0,.28-.65c0-.31-.2-.47-.61-.47a2.82,2.82,0,0,0-1.93,1.11,3.2,3.2,0,0,0-1,2c0,1,.47,1.49,1.4,1.49a2.61,2.61,0,0,0,1.43-.44A6.69,6.69,0,0,0,87.44,23a.35.35,0,0,0,.11-.21Zm4.19.19a.1.1,0,0,1,0,.08,2.2,2.2,0,0,1-.8.77,2.09,2.09,0,0,1-1.05.32,1.28,1.28,0,0,1-.69-.19q-.87,1.38-1.8,1.38c-.44,0-.66-.26-.66-.77a4.87,4.87,0,0,1,1-2.53,2,2,0,0,1,0-.41,2.24,2.24,0,0,1,.45-1.32,1.32,1.32,0,0,1,1.11-.64.77.77,0,0,1,.7.5,2.06,2.06,0,0,1,.21.91,6,6,0,0,1-.79,2.58,1.25,1.25,0,0,0,.64.17,1.73,1.73,0,0,0,1.17-.49,4.72,4.72,0,0,0,.51-.49.12.12,0,0,1,.13.13Zm-2.23-1.43a2.83,2.83,0,0,0-.13-.85c-.12-.4-.29-.6-.49-.6s-.51.17-.68.53a2,2,0,0,0-.17.9.84.84,0,0,1,.61-.36.49.49,0,0,1,.41.19v.1a.37.37,0,0,1,0,.09s-.06.06-.19.06-.46.24-.71.71A2.34,2.34,0,0,0,89,23.46a5.42,5.42,0,0,0,.47-1.94Zm-.62,2.21a2.31,2.31,0,0,1-.53.67c-.29.31-.52.46-.69.46s-.29-.13-.29-.38A4.78,4.78,0,0,1,88,22.76a3,3,0,0,0,.94,1ZM99,22.92c0-.12,0-.17-.1-.17s-.11.06-.19.18q-1.11,1.59-1.83,1.59c-.33,0-.5-.33-.5-1a6.66,6.66,0,0,1,.09-.9,6.41,6.41,0,0,0,.09-.89c0-.24-.09-.36-.28-.36a.82.82,0,0,0-.6.36c-.74,1-1.29,1.7-1.64,2.2.11-.93.21-1.63.3-2.12a6.41,6.41,0,0,0,.13-1c0-.23-.1-.34-.3-.34a.75.75,0,0,0-.58.34c-.31.4-.53.7-.68.91-.48.64-.94,1.26-1.4,1.86.59-1.78.89-2.74.89-2.86s0-.12-.13-.12a.75.75,0,0,0-.37.14.5.5,0,0,0-.26.26q-.11.49-.15.75a19.49,19.49,0,0,1-.88,2.87.61.61,0,0,0,0,.15c0,.22.05.34.15.34s.11-.06.19-.17c.59-.92,1.14-1.72,1.66-2.4a10.22,10.22,0,0,1,1-1.22s.06.05.06.15a6.71,6.71,0,0,1-.13.94,13.79,13.79,0,0,0-.25,2,2,2,0,0,0,.06.53.19.19,0,0,0,.17.07c.23,0,.43-.17.62-.52a8.31,8.31,0,0,1,1.53-2.17c0,.25,0,.48,0,.68,0,1.3.29,2,.89,2a2.23,2.23,0,0,0,1.35-.76A8.84,8.84,0,0,0,98.94,23a.18.18,0,0,0,0-.11Zm-1.91-3.51a5,5,0,0,0-3.48.06.77.77,0,0,0-.34.35.9.9,0,0,0-.06.36.74.74,0,0,1-.06.34l-.07.06c-.13.09-.18,0-.16-.28a1.65,1.65,0,0,1,.18-.68,1.28,1.28,0,0,1,.64-.66,3.58,3.58,0,0,1,2.18-.38c.23,0,1,.11,2.28.32a2.79,2.79,0,0,0,1.57,0,.75.75,0,0,0,.32-.34.66.66,0,0,0,.05-.45.44.44,0,0,1,0-.36l0,0c.1-.06.15.06.14.38a1.57,1.57,0,0,1-.12.7,2,2,0,0,1-.6.75,2.31,2.31,0,0,1-1.49.09,2.43,2.43,0,0,0-.45-.09,2.14,2.14,0,0,1-.57-.15Zm10.44,3.39a.44.44,0,0,1-.13.3c-1.14,1.52-2.12,2.28-2.92,2.28s-1-.37-1-1.11a4.67,4.67,0,0,1,.32-1.39,5.64,5.64,0,0,1-1.33.77,2.9,2.9,0,0,1-.55.61,3.77,3.77,0,0,1-.7.48,4.49,4.49,0,0,1-.78.34,3.32,3.32,0,0,1-.78.17c-.73.08-1.1-.29-1.1-1.09A4.11,4.11,0,0,1,98.69,23c.13-.42.29-.83.47-1.26a10.3,10.3,0,0,1,.63-1.19,8.85,8.85,0,0,1,.64-1,.17.17,0,0,1,.2-.09,1,1,0,0,1,.27.11.88.88,0,0,1,.22.21.35.35,0,0,1,.1.22.34.34,0,0,1-.08.19c0,.06-.11.17-.21.33s-.22.32-.34.51l-.34.51c-.11.17-.18.27-.22.32-.21.43-.41.87-.58,1.32a3.15,3.15,0,0,0-.27,1q0,.66.63.66a1.66,1.66,0,0,0,.89-.33,4.3,4.3,0,0,0,.88-.76,1.33,1.33,0,0,1-.82-.17.92.92,0,0,1-.35-.81,1,1,0,0,1,.13-.65,1.62,1.62,0,0,1,.44-.53,1.68,1.68,0,0,1,.61-.31,1,1,0,0,1,.6,0,.75.75,0,0,1,.44.39,1.46,1.46,0,0,1,.13.86,2,2,0,0,1-.11.53,7.89,7.89,0,0,0,.74-.43,4.1,4.1,0,0,0,.62-.53c.09-.18.17-.34.25-.48a4.1,4.1,0,0,1,.26-.41.31.31,0,0,1,.26-.17.42.42,0,0,1,.31.15.44.44,0,0,1,.14.32.31.31,0,0,1-.07.21,4.93,4.93,0,0,0-.94,2.45c0,.45.16.68.49.68a2,2,0,0,0,1.22-.6l.48-.47a7.29,7.29,0,0,0,.52-.63l.49-.6q.09,0,.09.15Zm-5.48.42a1.26,1.26,0,0,0,.18-.66.5.5,0,0,0-.2-.37.56.56,0,0,0-.41-.1,1,1,0,0,0-.46.14.88.88,0,0,0-.32.34.64.64,0,0,0,0,.51.52.52,0,0,0,.39.38,1.36,1.36,0,0,0,.69,0l.06-.11A.41.41,0,0,1,102,23.22Z"/>
    <path class="cls-3" d="M48.35,1.59a.57.57,0,0,1-.09.2,25.61,25.61,0,0,0-2.6,6.44c.55.17.83.33.83.48s-.07.18-.2.18L46,8.77a2.65,2.65,0,0,0-.41-.13A16.14,16.14,0,0,0,45,12.13q0,.63.18.63a.86.86,0,0,0,.45-.23A1.38,1.38,0,0,1,46,12.3c.11,0,.17.07.17.2s-.12.28-.36.42a1.27,1.27,0,0,1-.6.21c-.46,0-.7-.39-.7-1.16A19.4,19.4,0,0,1,45,8.53a16.79,16.79,0,0,0-2.17-.15c-.37.45-.85,1-1.45,1.66a20,20,0,0,1-2.27,2.17,4.86,4.86,0,0,1-2.91,1,2.7,2.7,0,0,1-1.6-.44,1.62,1.62,0,0,1-.72-1.44,2.75,2.75,0,0,1,.9-2,4.12,4.12,0,0,1,1.92-1.1,23.28,23.28,0,0,1,5.87-.5c.8-.93,1.6-1.92,2.41-3,.23-.32.57-.78,1-1.39a.19.19,0,0,1,.16-.09c.16,0,.24.08.24.22a.24.24,0,0,1,0,.13q-.11.17-1.14,1.53-1.2,1.6-2,2.58a10.7,10.7,0,0,1,1.8.26,29.63,29.63,0,0,1,1.33-4.39c.15-.38.39-.92.74-1.62a1.7,1.7,0,0,1,.49-.38,1.67,1.67,0,0,1,.57-.26c.12,0,.17.05.17.17ZM42,8.38H41.5a20.45,20.45,0,0,0-4.79.42,3.8,3.8,0,0,0-1.6.9,2.25,2.25,0,0,0-.77,1.62,1,1,0,0,0,.52.93,2,2,0,0,0,1.08.27,4.82,4.82,0,0,0,2.74-.92,14.37,14.37,0,0,0,2.2-2q.54-.55,1.14-1.23Zm8.17.44c.19-.44,0,.08.68-1.62a15.81,15.81,0,0,1,2.9-4.37c.59-.59.41-1-.11-.69-1.5.77-3.91,6.07-4.7,7.69A7,7,0,0,0,48.18,12c0,.13.14.19.41.19a1,1,0,0,0,.42-.09,2.82,2.82,0,0,1,.56-1.27l.86-1a3.47,3.47,0,0,0,.72,1.59,1.84,1.84,0,0,0,1.36.94A2.76,2.76,0,0,0,54,11.47a7.55,7.55,0,0,0,1.25-1.36.38.38,0,0,0,.08-.18.09.09,0,0,0-.1-.1c-.07,0-.14.06-.22.17-.84,1.12-1.62,1.67-2.34,1.67-1.21,0-1.48-2.36-1.53-2.46,1.09-1.14,1.52-1.4,1.68-1.4s-.46.5.17.07c1.81-1.23-.25-.78-1.62.61l-1.83,1.82a14.67,14.67,0,0,1,.61-1.49Zm10.35,1.23a.54.54,0,0,1-.11.26A4.56,4.56,0,0,1,58.9,12a1.46,1.46,0,0,1-.66.16c-.75,0-1.13-.52-1.13-1.58a5.48,5.48,0,0,1,0-.55Q55.92,12.21,55,12.21q-.57,0-.57-.63a4.38,4.38,0,0,1,.92-2.31A4,4,0,0,1,57.1,7.62a1.64,1.64,0,0,1,.6-.12,1,1,0,0,1,1,.46.31.31,0,0,1,.06.12s0,0-.13.06a.3.3,0,0,0-.19.13A4.24,4.24,0,0,0,58,10.42c0,.89.19,1.33.57,1.33s.66-.3,1.15-.89a7.93,7.93,0,0,1,.8-.9s.06,0,.06.09ZM57.83,8.12a10.39,10.39,0,0,1-1.51,2.69c-.43.56-.78.85-1,.85s-.25-.13-.25-.39A3.94,3.94,0,0,1,56.14,9a2.17,2.17,0,0,1,1.53-.94l.16,0Zm6.26,0s0,.09-.16.12a.36.36,0,0,0-.22.17c-.07.27-.13.58-.21.94-.14.63-.36,1.56-.64,2.82h.07c.65,0,1,.11,1,.42,0,.07,0,.11-.08.11l-.15-.09a1.06,1.06,0,0,0-.53-.09h-.37A12.78,12.78,0,0,1,61,16.77q-2,2.91-4.24,2.91a2.2,2.2,0,0,1-1.48-.51,1.75,1.75,0,0,1-.6-1.38c0-1.32.93-2.57,2.8-3.78a12.12,12.12,0,0,1,4.6-1.88c.09-.46.23-1.17.43-2.11-.83,1.46-1.56,2.19-2.2,2.19q-.57,0-.57-.63a4.45,4.45,0,0,1,.92-2.3,4,4,0,0,1,1.79-1.66,1.78,1.78,0,0,1,.61-.12,1.42,1.42,0,0,1,.62.17c.25.12.37.25.37.4Zm-.86,0-.17,0A2.17,2.17,0,0,0,61.53,9a3.94,3.94,0,0,0-1.12,2.23c0,.26.09.39.26.39s.62-.29,1-.85a10.69,10.69,0,0,0,1.51-2.69ZM62.1,12.47a10.18,10.18,0,0,0-2.89,1,10.87,10.87,0,0,0-2.57,1.69,3.72,3.72,0,0,0-1.39,2.63A1.49,1.49,0,0,0,55.71,19a1.61,1.61,0,0,0,1.16.44,3.42,3.42,0,0,0,2.25-1,7.53,7.53,0,0,0,1.57-1.94,12.26,12.26,0,0,0,1.41-4.06Zm7-2.34a.36.36,0,0,1,0,.11,4.62,4.62,0,0,1-1.38,1.32,3.36,3.36,0,0,1-1.79.65c-.77,0-1.16-.49-1.16-1.46a3.69,3.69,0,0,1,.83-2.09,2.39,2.39,0,0,1,1.82-1.22.41.41,0,0,1,.32.17.54.54,0,0,1,.14.35A2.2,2.2,0,0,1,67,9.34a4.67,4.67,0,0,1-1.42.95,2.86,2.86,0,0,0-.13.78c0,.5.23.75.68.75a2.75,2.75,0,0,0,1.45-.53,5.59,5.59,0,0,0,1.2-1c.09-.12.17-.19.26-.19s.07,0,.07.08Zm-1.8-2A.2.2,0,0,0,67,8q-.29,0-.81.84a4.35,4.35,0,0,0-.57,1.13,3.34,3.34,0,0,0,1-.72,1.61,1.61,0,0,0,.61-1Zm5.12.7c0-.07,0-.1.13-.1s.12,0,.12.1,0,.18-.11.44-.22.54-.34.86a6,6,0,0,0-.25.91c-.06.28,0,.46.12.55a.34.34,0,0,0,.35,0,1.64,1.64,0,0,0,.33-.28,3.85,3.85,0,0,0,.33-.42c.11-.16.22-.32.33-.46.26-.32.49-.6.69-.83a8.74,8.74,0,0,1,.67-.7,3.7,3.7,0,0,0-.38.95A4.43,4.43,0,0,0,74.25,11c0,.89.35,1.33,1,1.33.9,0,1.77-.69,2.6-2.08A.68.68,0,0,0,78,9.93c0-.08,0-.12-.05-.12s-.19.18-.45.54a5.25,5.25,0,0,1-.86,1,1.69,1.69,0,0,1-1.11.54c-.44,0-.66-.24-.66-.7a5.68,5.68,0,0,1,1-2.69A.49.49,0,0,0,76,8.27a.38.38,0,0,0-.43-.42.27.27,0,0,0-.16.05.76.76,0,0,0-.17.13c-.52.55-.9,1-1.14,1.25s-.38.42-.56.63l-.49.58c-.15.17-.27.33-.37.46s-.16.22-.2.26a1.75,1.75,0,0,1,.17-.63L73,9.75c.14-.29.26-.56.37-.83a1.3,1.3,0,0,0,.14-.62c0-.16-.13-.24-.32-.24a2.23,2.23,0,0,0-1,.34,8.23,8.23,0,0,1-.54,1.43c-.18.33-.34.59-.47.78a4.4,4.4,0,0,1-1,1.07c-.29.21-.52.28-.69.22s-.25-.25-.26-.56a3.45,3.45,0,0,1,.29-1.21.41.41,0,0,0-.17-.23.43.43,0,0,0-.29-.1.43.43,0,0,0-.31.13.76.76,0,0,0-.21.47,2.66,2.66,0,0,0,0,1.17,1,1,0,0,0,.45.61,1,1,0,0,0,.78,0,2.65,2.65,0,0,0,1-.64,5.48,5.48,0,0,0,.8-1.14c.28-.51.54-1,.79-1.53Zm11,1a.68.68,0,0,1-.11.31,7.26,7.26,0,0,1-1.2,1.47,2.55,2.55,0,0,1-1.66.81c-.69,0-1-.43-1-1.29a4.75,4.75,0,0,1,.28-1.16c-.43.63-.71,1-.83,1.16-.41.48-.77.72-1.09.72s-.6-.34-.6-1a3.43,3.43,0,0,1,.38-1.42c.28-.64.59-1,.92-1s.28.05.28.15l-.47.84a2.94,2.94,0,0,0-.47,1.26c0,.39.12.59.35.59.39,0,1.1-.9,2.12-2.69.08-.17.21-.41.38-.72a.4.4,0,0,1,.28-.14.41.41,0,0,1,.3.13.43.43,0,0,1,.14.33s-.22.4-.65,1.23a4.63,4.63,0,0,0-.66,1.93c0,.43.21.65.61.65a1.9,1.9,0,0,0,1.18-.59,7.76,7.76,0,0,0,1-1.11,5,5,0,0,1,.5-.59s.06,0,.06.12Zm4.21-.72-.13.06a1.79,1.79,0,0,0-.36.53l-.19,0h-.18a1.5,1.5,0,0,0,.31-.54,2.49,2.49,0,0,0,.13-.67A2,2,0,0,0,87.11,8a.84.84,0,0,0-.29-.47.78.78,0,0,0-.56-.17,1.94,1.94,0,0,0-.85.29,2.1,2.1,0,0,0-.9.83,1,1,0,0,0-.06.81,1.28,1.28,0,0,0,.58.62,2.14,2.14,0,0,0,1,.26l-.33.48a4.4,4.4,0,0,1-1,1.07c-.29.21-.52.28-.69.22s-.25-.25-.25-.56A3.19,3.19,0,0,1,84,10.13a.44.44,0,0,0-.16-.23.47.47,0,0,0-.3-.1.45.45,0,0,0-.31.13.71.71,0,0,0-.2.47,2.05,2.05,0,0,0,0,1.15.94.94,0,0,0,.54.55,1.33,1.33,0,0,0,.87,0,2.77,2.77,0,0,0,1-.67l.41-.47c.21-.25.41-.52.62-.8l.21,0L87,10a3.82,3.82,0,0,0-.21.55,1.69,1.69,0,0,0,0,.23v.25q0,1.32,1,1.32c.89,0,1.76-.69,2.59-2.08a.56.56,0,0,0,.11-.31c0-.07,0-.11-.05-.11s-.19.18-.45.53a5.7,5.7,0,0,1-.86,1A1.72,1.72,0,0,1,88,12c-.44,0-.66-.23-.66-.7a1.31,1.31,0,0,1,.18-.66c.11-.21.24-.46.37-.74A1,1,0,0,0,88,9.63a.39.39,0,0,0-.41-.42Zm-.92-1.09a.21.21,0,0,1,.14.21,1.27,1.27,0,0,1,0,.41,3.87,3.87,0,0,1-.21.5,4.68,4.68,0,0,1-.3.54,1.41,1.41,0,0,1-.78-.51,1.12,1.12,0,0,1-.27-.72A.58.58,0,0,1,85.57,8,1.53,1.53,0,0,1,86.68,8.12Z"/>
  </g>
</svg>
