<svg width="195" height="55" viewBox="0 0 195 55" fill="none" xmlns="http://www.w3.org/2000/svg">
<path fill-rule="evenodd" clip-rule="evenodd" d="M128.122 27.8254C127.958 30.6278 124.471 33.5026 117.736 36.4135C118.833 37.9886 120.054 39.4758 121.386 40.8612C123.394 42.9766 124.891 44.0433 125.877 44.0433C126.406 44.0433 126.68 43.7541 126.68 43.1936C126.669 42.9923 126.638 42.7925 126.589 42.5969C126.579 42.4283 126.579 42.2593 126.589 42.0907C126.589 41.8918 126.589 41.7833 126.862 41.7833C127.136 41.7833 127.446 42.2353 127.446 43.1574C127.451 43.5946 127.295 44.0185 127.008 44.3507C126.864 44.5038 126.688 44.6249 126.493 44.7059C126.298 44.7869 126.088 44.8261 125.877 44.8208C124.672 44.8208 123.066 43.8264 121.021 41.8556C119.594 40.4513 118.27 38.9467 117.061 37.3537C115.795 39.6163 114.147 41.6467 112.187 43.3563C110.289 45.1401 107.809 46.1919 105.196 46.3214C104.259 46.3625 103.333 46.1094 102.549 45.5982C102.156 45.3543 101.834 45.012 101.616 44.6057C101.398 44.1995 101.292 43.7437 101.308 43.284C101.308 41.6929 102.403 39.9391 104.576 38.0046C106.007 36.4531 107.947 35.4539 110.051 35.184C110.252 35.184 110.362 35.184 110.362 35.4191C110.362 35.6541 110.197 35.6722 109.869 35.7988C107.454 36.6463 105.324 38.1425 103.718 40.1199C102.884 41.0669 102.395 42.264 102.33 43.519C102.33 44.9654 103.17 45.6706 104.813 45.6706C106.104 45.5955 107.367 45.2677 108.53 44.7059C109.692 44.1442 110.73 43.3598 111.585 42.398C113.408 40.5571 114.94 38.4542 116.13 36.1604C115.418 35.3301 114.873 34.3728 114.523 33.3399C114.54 32.9826 114.607 32.6295 114.724 32.2912C114.852 31.8392 115.016 31.6042 115.162 31.6042C115.308 31.6042 115.29 31.6042 115.345 31.7669C115.76 32.8205 116.241 33.847 116.787 34.8405C117.784 32.7267 118.367 30.4442 118.503 28.1147C118.503 27.0299 118.174 26.4875 117.517 26.4875C117.108 26.5208 116.714 26.6511 116.367 26.8671C116.138 27.0032 115.9 27.124 115.655 27.2288C115.491 27.2288 115.418 27.1384 115.418 26.9395C115.418 26.7406 115.801 26.3247 116.586 26.0174C117.095 25.7988 117.639 25.6703 118.192 25.6377C119.36 25.6377 120.017 26.4694 120.017 28.1147C119.875 30.7279 119.185 33.2832 117.991 35.618C122.713 33.4845 125.755 31.1702 127.118 28.6752C127.291 28.3062 127.437 27.9255 127.556 27.5361C127.556 27.3192 127.757 27.2107 127.903 27.2107C128.049 27.2107 128.304 27.3734 128.286 27.7169L128.122 27.8254ZM140.899 40.0657C140.899 39.9211 140.899 39.8487 140.771 39.8487C140.643 39.8487 140.643 39.8487 140.552 40.0295C138.118 43.0429 135.91 44.5737 133.926 44.6219C135.261 43.667 136.329 42.3916 137.029 40.9155C137.878 39.4912 138.367 37.8845 138.453 36.2327C138.453 35.166 138.088 34.6416 137.358 34.6416C136.628 34.6416 135.532 35.3648 134.364 36.8113C133.565 37.8243 132.85 38.9007 132.229 40.0295C132.229 39.8126 132.229 39.4871 132.229 39.0532C132.229 38.6012 132.229 38.2758 132.229 38.0407C132.229 36.5039 131.845 35.7265 131.061 35.7265C130.276 35.7265 129.984 35.7265 129.984 35.8711C130.012 36.004 130.082 36.1244 130.184 36.2146C130.312 36.3802 130.377 36.5851 130.367 36.7932C130.279 38.1306 129.796 39.4129 128.98 40.4815C128.949 40.5694 128.949 40.6649 128.98 40.7527C128.98 40.9155 128.98 40.9878 129.18 40.9878C129.381 40.9878 129.965 40.2827 130.823 38.8724C130.823 39.4871 130.823 40.2103 130.823 41.0239V41.2228C129.345 43.2478 127.848 45.2547 126.388 47.2616C124.325 50.281 123.285 52.3422 123.285 53.4631C123.285 54.2948 123.577 54.7287 124.161 54.7287C125.238 54.7287 126.625 53.3366 128.341 50.5703C129.474 48.7469 130.445 46.8292 131.243 44.8389C131.577 44.9442 131.919 45.0228 132.265 45.0739H133.16C133.579 45.0739 133.89 45.0739 134.091 45.0739C135.446 44.9105 136.719 44.343 137.741 43.4467C138.911 42.6715 139.915 41.6763 140.698 40.5177C140.808 40.3422 140.877 40.1445 140.899 39.9391V40.0657ZM136.956 36.8655C136.882 38.3453 136.476 39.7903 135.77 41.0963C135.236 42.4576 134.252 43.5989 132.977 44.3326C132.522 43.9504 132.117 43.5131 131.772 43.0309C132.189 41.6554 132.739 40.3233 133.415 39.0532C133.94 37.7498 134.858 36.6385 136.044 35.8711C136.152 35.8539 136.263 35.8539 136.372 35.8711C136.774 35.8711 136.956 36.2146 136.956 36.9197V36.8655ZM130.458 43.067C130.458 43.067 130.257 43.1755 130.093 43.4105L127.611 47.0266C126.945 48.0232 126.336 49.0553 125.785 50.1183C125.184 51.0883 124.752 52.1519 124.508 53.2642C124.508 53.4631 124.508 53.5716 124.727 53.5716C125.731 53.5716 127.118 51.9263 128.888 48.6538C129.542 47.2223 130.038 45.725 130.367 44.188C130.358 44.0797 130.358 43.9708 130.367 43.8625C130.366 43.5965 130.436 43.3348 130.568 43.1032L130.458 43.067ZM150.719 40.2103C150.701 40.3834 150.631 40.5472 150.518 40.6804C149.852 41.9407 148.872 43.0113 147.671 43.7902C147.285 43.9829 146.861 44.0879 146.429 44.0976C145.024 44.0976 144.33 43.1213 144.33 41.1686C144.304 40.8255 144.304 40.4811 144.33 40.138C142.779 42.85 141.428 44.188 140.223 44.188C139.512 44.188 139.165 43.8083 139.165 43.0309C139.305 41.4734 139.901 39.9904 140.881 38.7639C141.643 37.4239 142.812 36.355 144.221 35.7084C144.578 35.5547 144.963 35.4747 145.353 35.4733C145.706 35.435 146.064 35.4941 146.386 35.644C146.708 35.7939 146.982 36.0289 147.178 36.3231C147.231 36.3926 147.269 36.4728 147.287 36.5581C147.287 36.5581 147.287 36.5581 147.05 36.6666C146.979 36.6812 146.913 36.7095 146.853 36.7499C146.793 36.7902 146.743 36.8418 146.703 36.9017C146.077 38.1315 145.793 39.5046 145.882 40.8793C145.882 42.5246 146.229 43.3382 146.941 43.3382C147.652 43.3382 148.164 42.7958 149.094 41.6929C149.544 41.0972 150.045 40.5407 150.591 40.0295C150.591 40.0295 150.591 40.0295 150.591 40.2103H150.719ZM145.663 36.5943C145.006 38.4057 144.083 40.1115 142.925 41.6568C142.122 42.7054 141.465 43.2297 140.954 43.2297C140.643 43.2297 140.479 42.9947 140.479 42.5065C140.705 40.9422 141.443 39.4943 142.578 38.3842C142.89 37.895 143.307 37.4796 143.799 37.1672C144.291 36.8548 144.846 36.6531 145.426 36.5762H145.736L145.663 36.5943ZM158.44 39.9572C158.44 39.9572 158.44 39.8668 158.312 39.8668C158.184 39.8668 157.947 39.9934 157.728 40.2646C156.031 42.38 154.406 43.4467 152.836 43.4467C151.619 43.4467 151.011 42.7416 151.011 41.3313C151.103 40.3672 151.463 39.4473 152.051 38.6735C152.251 38.2362 152.564 37.8589 152.958 37.5795C153.353 37.3002 153.814 37.1287 154.296 37.0825C154.881 37.0825 155.191 37.3175 155.191 37.7876C155.179 37.9567 155.136 38.1222 155.063 38.2758C155.004 38.414 154.967 38.5603 154.954 38.7097C154.954 38.8182 154.954 38.8724 155.081 38.8724C155.209 38.8724 155.556 38.6012 155.884 38.0407C156.145 37.6939 156.32 37.2914 156.396 36.8655C156.396 36.305 156.031 36.0157 155.282 36.0157C154.588 36.0959 153.918 36.3152 153.312 36.6602C152.707 37.0053 152.178 37.4688 151.759 38.0226C150.732 38.9713 150.084 40.2551 149.934 41.6387C149.934 43.4467 150.792 44.3326 152.489 44.3326C153.419 44.3254 154.327 44.0489 155.1 43.5371C156.357 42.724 157.452 41.6882 158.33 40.4815C158.44 40.382 158.511 40.2477 158.531 40.1019L158.44 39.9572ZM166.088 40.3007C166.098 40.3236 166.103 40.3482 166.103 40.3731C166.103 40.398 166.098 40.4226 166.088 40.4454C165.729 41.0255 165.227 41.5048 164.628 41.8376C164.052 42.1961 163.391 42.3959 162.711 42.4161C162.267 42.4226 161.83 42.3034 161.452 42.0726C160.393 43.736 159.298 44.5677 158.166 44.5677C157.363 44.5677 156.961 44.0976 156.961 43.1755C157.119 41.5099 157.752 39.9233 158.787 38.6012C158.761 38.3548 158.761 38.1064 158.787 37.8599C158.797 36.9981 159.085 36.162 159.608 35.4733C159.819 35.1259 160.115 34.8374 160.47 34.6349C160.824 34.4325 161.225 34.3228 161.634 34.3162C161.914 34.3238 162.185 34.4139 162.412 34.575C162.64 34.736 162.814 34.9607 162.912 35.2202C163.165 35.7323 163.296 36.2952 163.295 36.8655C163.178 38.5087 162.685 40.1039 161.853 41.5302C162.208 41.7348 162.611 41.841 163.021 41.8376C163.821 41.8207 164.584 41.5041 165.157 40.9516C165.489 40.6798 165.8 40.3837 166.088 40.0657C166.12 40.0629 166.152 40.0671 166.182 40.078C166.212 40.0888 166.239 40.106 166.262 40.1284C166.284 40.1508 166.302 40.1779 166.313 40.2076C166.324 40.2374 166.328 40.2692 166.325 40.3007H166.088ZM162.017 37.7153C162.018 37.194 161.938 36.6758 161.78 36.1785C161.561 35.4552 161.251 35.0936 160.886 35.0936C160.521 35.0936 159.955 35.401 159.645 36.0519C159.415 36.5632 159.309 37.1202 159.334 37.6791C159.461 37.4969 159.626 37.3442 159.818 37.2317C160.011 37.1193 160.225 37.0499 160.448 37.0282C160.591 37.0218 160.734 37.0496 160.864 37.1094C160.995 37.1692 161.108 37.2592 161.196 37.3717V37.5525C161.203 37.6066 161.203 37.6612 161.196 37.7153C161.196 37.7153 161.087 37.8238 160.849 37.8238C160.612 37.8238 160.01 38.2577 159.553 39.1074C159.834 40.0003 160.405 40.776 161.178 41.3132C161.681 40.2067 161.971 39.0174 162.036 37.8057L162.017 37.7153ZM160.886 41.711C160.642 42.1709 160.314 42.5817 159.918 42.9224C159.389 43.4829 158.969 43.7541 158.659 43.7541C158.349 43.7541 158.13 43.519 158.13 43.067C158.341 41.9929 158.756 40.9683 159.353 40.0476C159.776 40.7735 160.363 41.3924 161.068 41.8556L160.886 41.711ZM179.431 40.3369C179.431 40.1199 179.431 40.0295 179.248 40.0295C179.066 40.0295 179.047 40.138 178.901 40.355C177.551 42.2715 176.437 43.2297 175.561 43.2297C174.959 43.2297 174.648 42.6331 174.648 41.4217C174.666 40.8762 174.721 40.3326 174.813 39.7945C174.905 39.2626 174.96 38.7249 174.977 38.1854C174.977 37.7514 174.813 37.5345 174.466 37.5345C174.246 37.5562 174.034 37.6259 173.845 37.7384C173.655 37.8509 173.494 38.0036 173.371 38.1854C172.02 39.9934 171.016 41.259 170.377 42.163C170.578 40.4815 170.761 39.2159 170.925 38.33C171.052 37.7344 171.131 37.1299 171.162 36.522C171.162 36.1061 170.98 35.9073 170.615 35.9073C170.402 35.9211 170.196 35.9838 170.012 36.0905C169.828 36.1973 169.672 36.345 169.556 36.522C168.99 37.2452 168.589 37.7876 168.315 38.1673C167.439 39.3244 166.599 40.4454 165.759 41.5302C166.836 38.3119 167.384 36.5762 167.384 36.3593C167.384 36.1423 167.384 36.1423 167.147 36.1423C166.903 36.1653 166.669 36.2527 166.471 36.3954C166.258 36.4867 166.089 36.6548 165.997 36.8655C165.863 37.4561 165.771 37.9081 165.723 38.2215C165.323 39.9895 164.786 41.7243 164.117 43.4105C164.105 43.5006 164.105 43.5917 164.117 43.6817C164.117 44.0795 164.208 44.2965 164.39 44.2965C164.573 44.2965 164.591 44.188 164.737 43.9891C165.814 42.3257 166.818 40.8793 167.767 39.6499C168.317 38.8691 168.928 38.1317 169.592 37.4441C169.592 37.4441 169.702 37.5345 169.702 37.7153C169.663 38.2866 169.584 38.8546 169.465 39.4148C169.224 40.6075 169.071 41.8161 169.008 43.0309C169.001 43.3537 169.038 43.676 169.118 43.9891C169.155 44.0345 169.202 44.0699 169.257 44.092C169.311 44.1142 169.37 44.1223 169.428 44.1157C169.848 44.1157 170.213 43.8083 170.56 43.1755C171.272 41.7279 172.215 40.4032 173.353 39.2521C173.353 39.7041 173.353 40.1199 173.353 40.4815C173.353 42.832 173.882 44.0976 174.977 44.0976C175.938 43.946 176.812 43.4585 177.441 42.7235C178.135 42.0345 178.765 41.284 179.321 40.4815C179.342 40.4169 179.342 40.3473 179.321 40.2827L179.431 40.3369ZM175.944 33.9908C173.882 33.2722 171.628 33.3107 169.592 34.0992C169.322 34.2379 169.104 34.46 168.972 34.732C168.891 34.9393 168.854 35.1608 168.862 35.3829C168.875 35.5935 168.838 35.8042 168.753 35.9977L168.625 36.1061C168.388 36.2689 168.296 36.1061 168.333 35.5999C168.352 35.1714 168.464 34.7521 168.662 34.3704C168.888 33.8431 169.305 33.4179 169.83 33.1771C171.05 32.5376 172.443 32.2971 173.809 32.4901C174.229 32.4901 175.634 32.689 177.971 33.0687C178.906 33.3404 179.901 33.3404 180.836 33.0687C181.092 32.9305 181.297 32.7152 181.42 32.4539C181.547 32.2019 181.579 31.9137 181.512 31.6403C181.465 31.538 181.441 31.4271 181.441 31.3149C181.441 31.2027 181.465 31.0918 181.512 30.9894C181.694 30.881 181.785 31.0979 181.767 31.6765C181.793 32.1094 181.718 32.5423 181.548 32.9421C181.3 33.4755 180.924 33.9409 180.453 34.2981C179.59 34.649 178.633 34.7062 177.733 34.4608C177.465 34.3811 177.19 34.3266 176.912 34.2981C176.554 34.2557 176.204 34.1644 175.871 34.0269L175.944 33.9908ZM195 40.1199C194.995 40.3242 194.91 40.5184 194.763 40.6623C192.682 43.4105 190.894 44.7846 189.433 44.7846C187.973 44.7846 187.608 44.1157 187.608 42.7777C187.672 41.9153 187.869 41.0677 188.192 40.2646C187.451 40.8362 186.634 41.3046 185.765 41.6568C185.484 42.0697 185.146 42.4411 184.761 42.7597C184.369 43.0957 183.94 43.3868 183.483 43.6275C183.029 43.8766 182.552 44.0824 182.059 44.2422C181.599 44.401 181.121 44.5042 180.635 44.5496C179.303 44.6942 178.628 44.0253 178.628 42.5788C178.606 41.8721 178.685 41.1659 178.865 40.4815C179.102 39.7222 179.394 38.9809 179.723 38.2034C180.058 37.4622 180.442 36.7435 180.873 36.0519C181.221 35.424 181.611 34.82 182.041 34.2439C182.073 34.1784 182.127 34.1262 182.193 34.0964C182.26 34.0666 182.336 34.0612 182.406 34.0812C182.579 34.1232 182.745 34.1902 182.899 34.28C183.054 34.3826 183.19 34.511 183.3 34.6597C183.407 34.7666 183.472 34.9076 183.483 35.0575C183.471 35.1842 183.42 35.3042 183.337 35.401C183.337 35.5095 183.136 35.7084 182.954 35.9977C182.771 36.2869 182.552 36.5762 182.333 36.9197L181.712 37.8418C181.512 38.1492 181.384 38.33 181.311 38.4204C180.927 39.1979 180.562 39.9934 180.252 40.807C179.988 41.3786 179.822 41.9895 179.759 42.615C179.759 43.4105 180.143 43.8083 180.909 43.8083C181.498 43.7703 182.062 43.5629 182.534 43.2117C183.13 42.8278 183.67 42.3655 184.14 41.8376C183.621 41.8974 183.096 41.7896 182.643 41.5302C182.421 41.3587 182.247 41.1347 182.135 40.8788C182.023 40.6229 181.978 40.3433 182.004 40.0657C181.946 39.6586 182.03 39.2441 182.242 38.8905C182.437 38.5177 182.711 38.1909 183.045 37.9322C183.373 37.6717 183.752 37.4809 184.158 37.3717C184.515 37.2607 184.897 37.2607 185.253 37.3717C185.428 37.4296 185.59 37.5219 185.728 37.6431C185.866 37.7643 185.978 37.9118 186.057 38.0769C186.293 38.5593 186.376 39.1016 186.294 39.6318C186.271 39.9587 186.204 40.2811 186.093 40.59C186.557 40.3553 187.008 40.0957 187.444 39.8126C187.852 39.5312 188.231 39.2102 188.575 38.8543C188.74 38.5289 188.886 38.2396 189.032 37.9865C189.175 37.7303 189.334 37.4828 189.506 37.2452C189.551 37.1571 189.619 37.0823 189.702 37.0284C189.785 36.9744 189.882 36.9432 189.981 36.9378C190.089 36.9409 190.196 36.9666 190.293 37.0133C190.391 37.0601 190.477 37.1268 190.547 37.209C190.627 37.2831 190.691 37.3726 190.735 37.4721C190.779 37.5716 190.802 37.679 190.802 37.7876C190.808 37.9254 190.763 38.0606 190.675 38.1673C189.709 39.4632 189.116 40.994 188.959 42.5969C188.959 43.4105 189.251 43.8264 189.853 43.8264C190.701 43.7334 191.488 43.3497 192.08 42.7416L192.956 41.8918C193.294 41.53 193.611 41.1497 193.905 40.7527L194.8 39.6679C194.909 39.6679 194.964 39.7583 194.964 39.9391L195 40.1199ZM184.998 40.8793C185.216 40.5192 185.33 40.1062 185.326 39.686C185.318 39.5549 185.281 39.4272 185.218 39.3117C185.155 39.1961 185.068 39.0956 184.961 39.017C184.745 38.8624 184.477 38.7975 184.213 38.8362C183.917 38.8517 183.628 38.9386 183.373 39.0894C183.126 39.2384 182.925 39.4508 182.789 39.7041C182.725 39.8496 182.693 40.0065 182.693 40.1651C182.693 40.3238 182.725 40.4807 182.789 40.6262C182.832 40.7947 182.922 40.9481 183.047 41.0694C183.173 41.1907 183.33 41.2751 183.501 41.3132C183.914 41.4205 184.348 41.4205 184.761 41.3132L184.87 41.1144C184.869 41.0346 184.882 40.9552 184.907 40.8793H184.998Z" fill="#212121"/>
<path fill-rule="evenodd" clip-rule="evenodd" d="M86.9801 1.77186C86.9495 1.90179 86.8937 2.0246 86.8159 2.13346C84.7075 5.78322 83.1109 9.70045 82.0701 13.7771C83.074 14.0845 83.5851 14.3738 83.5851 14.645C83.5851 14.9162 83.4573 14.9704 83.2201 14.9704L82.6907 14.7535C82.4481 14.6551 82.1978 14.5765 81.9423 14.5184C81.3509 16.5763 80.9898 18.6923 80.8654 20.8284C80.8654 21.5878 80.9749 21.9675 81.194 21.9675C81.5036 21.9135 81.7898 21.7686 82.0154 21.5516C82.2168 21.3785 82.4448 21.2381 82.6907 21.1358C82.8915 21.1358 83.001 21.2623 83.001 21.4974C83.001 21.7324 82.782 22.0036 82.3439 22.2567C82.0173 22.4732 81.6404 22.6039 81.2487 22.6364C80.4091 22.6364 79.971 21.9313 79.971 20.5391C80.0807 18.4436 80.3801 16.3621 80.8654 14.3195C79.5524 14.1444 78.2294 14.0538 76.9045 14.0483C76.2292 14.8619 75.353 15.8563 74.2579 17.0496C72.9827 18.463 71.5973 19.7748 70.1145 20.973C68.5883 22.1297 66.7243 22.7641 64.8029 22.7811C63.7692 22.8261 62.7474 22.5478 61.8824 21.9855C61.4532 21.7027 61.1062 21.3136 60.8757 20.8569C60.6451 20.4002 60.5391 19.8918 60.5682 19.382C60.5769 18.6999 60.7273 18.0268 61.0099 17.4047C61.2925 16.7826 61.7013 16.2248 62.2109 15.7659C63.1742 14.7989 64.3861 14.1111 65.7155 13.7771C69.2339 13.0276 72.8342 12.7238 76.43 12.8731C77.8902 11.1916 79.3504 9.40171 80.8289 7.44904C81.2487 6.87048 81.8693 6.03879 82.6542 4.93589C82.685 4.88654 82.728 4.84573 82.7791 4.81728C82.8301 4.78882 82.8877 4.77365 82.9463 4.77317C83.2383 4.77317 83.3843 4.91781 83.3843 5.17094C83.4062 5.24779 83.4062 5.32912 83.3843 5.40598C83.2505 5.61089 82.5569 6.53298 81.3035 8.17225C79.8433 10.1008 78.6264 11.6557 77.6529 12.8369C78.7596 12.901 79.8587 13.0583 80.9384 13.307C81.5394 10.6031 82.351 7.94944 83.3661 5.36982C83.6399 4.68277 84.0779 3.70644 84.7168 2.44083C84.9699 2.15943 85.273 1.92654 85.6112 1.75378C85.9249 1.53347 86.278 1.37397 86.6516 1.28369C86.8706 1.28369 86.9619 1.37409 86.9619 1.59106L86.9801 1.77186ZM75.3895 14.0483H74.4769C71.5425 13.96 68.6078 14.2149 65.7337 14.8077C64.6406 15.1055 63.6379 15.6642 62.8133 16.4349C62.3888 16.8016 62.0449 17.2508 61.8032 17.7547C61.5614 18.2586 61.4268 18.8063 61.4078 19.3639C61.3899 19.7043 61.4695 20.0428 61.6375 20.3403C61.8054 20.6378 62.0548 20.8822 62.357 21.0454C62.9542 21.3896 63.6378 21.5589 64.3283 21.5335C66.1279 21.4989 67.8735 20.9183 69.3296 19.8702C70.7907 18.8056 72.1365 17.5938 73.3452 16.2541C74.0023 15.5912 74.6959 14.8499 75.4261 14.0302L75.3895 14.0483ZM90.3022 14.8439C90.649 14.0483 90.3022 14.9885 91.5434 11.9149C92.8514 9.00762 94.6405 6.3372 96.8367 4.0138C97.9137 2.94707 97.5851 2.20578 96.6359 2.76627C93.898 4.15845 89.4991 13.741 88.0571 16.67C87.3795 17.8931 86.9108 19.2188 86.6699 20.5934C86.6699 20.8284 86.9254 20.9369 87.4182 20.9369C87.6826 20.9383 87.9442 20.8828 88.1848 20.7742C88.3271 19.9364 88.6785 19.1471 89.207 18.478L90.7768 16.67C90.9604 17.7235 91.4128 18.713 92.091 19.5447C92.3422 20.0002 92.6976 20.3911 93.1286 20.6862C93.5597 20.9813 94.0544 21.1724 94.5734 21.2442C95.631 21.0115 96.5848 20.4472 97.2931 19.6351C98.1523 18.9111 98.9186 18.0853 99.5747 17.1762C99.6514 17.0823 99.7017 16.9701 99.7207 16.8508C99.7236 16.8263 99.7209 16.8015 99.7128 16.7783C99.7047 16.755 99.6913 16.7339 99.6737 16.7165C99.6562 16.6991 99.6348 16.6858 99.6113 16.6778C99.5879 16.6697 99.5628 16.667 99.5382 16.67C99.4104 16.67 99.2826 16.7784 99.1366 16.9773C97.6034 19.0023 96.1796 19.9967 94.8654 19.9967C92.6568 19.9967 92.164 15.7298 92.0727 15.549C94.0623 13.4878 94.8472 13.0178 95.1392 13.0178C95.4313 13.0178 94.2996 13.9218 95.4495 13.1443C98.7533 10.9204 94.9932 11.7341 92.4925 14.2472L89.1523 17.5378C89.4733 16.6203 89.845 15.721 90.2657 14.8439H90.3022ZM109.194 17.0677C109.17 17.2393 109.101 17.4015 108.993 17.5378C108.349 18.7698 107.401 19.8208 106.237 20.5934C105.864 20.7822 105.451 20.8814 105.032 20.8826C103.663 20.8826 102.97 19.9425 102.97 18.026C102.953 17.6947 102.953 17.3628 102.97 17.0316C101.522 19.6592 100.238 20.973 99.1183 20.973C98.4247 20.973 98.0779 20.5934 98.0779 19.834C98.2186 18.3104 98.8019 16.8597 99.7572 15.6575C100.488 14.362 101.603 13.3205 102.951 12.6742C103.3 12.5345 103.671 12.4609 104.047 12.4573C104.4 12.4038 104.761 12.4541 105.085 12.602C105.41 12.7498 105.683 12.9887 105.872 13.289C105.924 13.3525 105.961 13.4265 105.981 13.5059C105.981 13.5059 105.981 13.5059 105.744 13.6144C105.674 13.629 105.607 13.6573 105.547 13.6977C105.488 13.738 105.437 13.7896 105.397 13.8494C104.79 15.0529 104.513 16.3936 104.594 17.7367C104.594 19.3458 104.941 20.1414 105.635 20.1414C106.328 20.1414 106.839 19.5989 107.734 18.5322C108.178 17.9539 108.666 17.41 109.194 16.905C109.194 16.905 109.303 16.905 109.303 17.0677H109.194ZM104.284 13.5782C103.615 15.3262 102.686 16.9655 101.528 18.4418C100.743 19.4543 100.104 19.9786 99.7024 19.9786C99.3009 19.9786 99.2461 19.7436 99.2461 19.2735C99.4281 17.7311 100.114 16.2899 101.199 15.1693C101.515 14.705 101.928 14.3131 102.41 14.02C102.891 13.7268 103.431 13.5392 103.992 13.4698H104.284V13.5782ZM115.71 13.5782C115.71 13.5782 115.71 13.741 115.418 13.7952C115.334 13.8175 115.255 13.8562 115.186 13.9089C115.117 13.9617 115.06 14.0275 115.017 14.1026C114.889 14.5907 114.779 15.1512 114.633 15.8021C114.378 16.9412 113.976 18.6226 113.465 20.9007H113.593C114.779 20.9007 115.418 21.0996 115.418 21.6601C115.418 21.7867 115.418 21.859 115.272 21.859L114.998 21.6963C114.695 21.5606 114.362 21.5045 114.031 21.5335H113.356C112.74 24.2712 111.627 26.875 110.07 29.2176C107.636 32.7252 105.057 34.479 102.331 34.479C101.347 34.5101 100.385 34.1819 99.6294 33.5569C99.271 33.2479 98.9867 32.8635 98.7973 32.4319C98.6078 32.0003 98.518 31.5322 98.5343 31.0618C98.5343 28.6752 100.232 26.4152 103.645 24.2275C106.177 22.5322 109.036 21.3748 112.041 20.8284C112.206 19.9967 112.461 18.713 112.826 17.0135C111.311 19.6532 109.979 20.973 108.811 20.973C108.117 20.973 107.77 20.5934 107.77 19.834C107.921 18.3183 108.504 16.8763 109.45 15.6755C110.196 14.3623 111.339 13.313 112.717 12.6742C113.072 12.5378 113.449 12.4643 113.83 12.4573C114.226 12.4727 114.613 12.5778 114.962 12.7646C115.418 12.9816 115.637 13.2166 115.637 13.4878L115.71 13.5782ZM114.14 13.5782H113.83C113.278 13.6348 112.744 13.8057 112.263 14.0798C111.782 14.3539 111.364 14.7251 111.038 15.1693C109.933 16.2584 109.216 17.6733 108.993 19.2012C108.993 19.6713 109.157 19.9063 109.468 19.9063C109.778 19.9063 110.599 19.382 111.293 18.3695C112.444 16.8888 113.373 15.2506 114.049 13.5059L114.14 13.5782ZM112.078 21.4431C110.238 21.7793 108.459 22.3888 106.803 23.2512C105.101 24.0443 103.521 25.0731 102.112 26.3067C101.381 26.8838 100.779 27.6039 100.343 28.4221C99.906 29.2403 99.6446 30.139 99.5747 31.0618C99.5395 31.4655 99.5967 31.8719 99.7421 32.2507C99.8875 32.6295 100.117 32.9709 100.414 33.2495C100.697 33.5142 101.029 33.7209 101.393 33.8574C101.756 33.994 102.143 34.0577 102.532 34.045C104.08 33.9683 105.544 33.3239 106.639 32.237C107.784 31.2339 108.753 30.0484 109.504 28.7295C110.792 26.4518 111.663 23.9668 112.078 21.3889V21.4431ZM124.855 17.2124C124.865 17.2783 124.865 17.3453 124.855 17.4112C124.192 18.3719 123.334 19.1847 122.336 19.7978C121.384 20.4935 120.25 20.9016 119.069 20.973C117.663 20.973 116.951 20.0871 116.951 18.3333C117.047 16.9483 117.577 15.6273 118.466 14.5546C118.802 13.9511 119.279 13.4361 119.857 13.0524C120.435 12.6687 121.097 12.4274 121.788 12.3488C121.903 12.3523 122.015 12.3818 122.117 12.4351C122.218 12.4884 122.305 12.564 122.373 12.6561C122.532 12.8298 122.622 13.0545 122.628 13.289C122.437 14.2943 121.861 15.1879 121.022 15.784C120.272 16.5096 119.393 17.0919 118.43 17.5016C118.285 17.9586 118.205 18.4332 118.193 18.9119C118.193 19.8159 118.612 20.2679 119.434 20.2679C120.39 20.2054 121.309 19.8729 122.081 19.3097C122.892 18.8115 123.63 18.2029 124.271 17.5016C124.435 17.2847 124.581 17.1581 124.745 17.1581C124.91 17.1581 124.873 17.1581 124.873 17.3028L124.855 17.2124ZM121.569 13.5963C121.558 13.5396 121.532 13.4865 121.495 13.4416C121.458 13.3967 121.411 13.3612 121.357 13.3381C121.304 13.3151 121.245 13.3052 121.187 13.3092C121.128 13.3132 121.072 13.3311 121.022 13.3613C120.669 13.3613 120.176 13.8675 119.543 14.88C119.098 15.5072 118.747 16.1955 118.503 16.9231C119.188 16.605 119.807 16.1636 120.328 15.6213C120.915 15.1785 121.313 14.5331 121.442 13.8133L121.569 13.5963ZM130.915 14.8619C130.915 14.7354 130.915 14.6811 131.152 14.6811C131.39 14.6811 131.371 14.6811 131.371 14.8619C131.371 15.0427 131.371 15.1874 131.17 15.6575C130.97 16.1275 130.769 16.6338 130.55 17.2124C130.354 17.7481 130.202 18.2982 130.094 18.8577C129.984 19.3639 130.094 19.6894 130.313 19.8521C130.409 19.9094 130.519 19.9398 130.632 19.9398C130.745 19.9398 130.855 19.9094 130.951 19.8521C131.174 19.7104 131.376 19.5402 131.554 19.3458C131.772 19.1068 131.973 18.8531 132.156 18.5865C132.357 18.2972 132.558 18.0079 132.758 17.7548C133.233 17.1762 133.653 16.67 134.018 16.2541C134.402 15.8102 134.81 15.3876 135.241 14.9885C134.93 15.5265 134.697 16.1045 134.547 16.7061C134.358 17.3835 134.26 18.0826 134.255 18.7853C134.255 20.3945 134.894 21.19 136.081 21.19C137.723 21.19 139.311 19.9425 140.826 17.4293C140.967 17.2637 141.062 17.0641 141.1 16.8508C141.1 16.7061 141.1 16.6338 141.009 16.6338C140.918 16.6338 140.662 16.9592 140.187 17.6101C139.743 18.2758 139.216 18.8832 138.618 19.4181C138.091 19.985 137.367 20.3337 136.592 20.3945C135.788 20.3945 135.387 19.9606 135.387 19.1289C135.565 17.3796 136.194 15.705 137.212 14.2653C137.328 14.1508 137.41 14.007 137.449 13.8494C137.462 13.7452 137.45 13.6396 137.414 13.5407C137.379 13.4419 137.321 13.3523 137.245 13.279C137.169 13.2057 137.078 13.1506 136.977 13.1178C136.876 13.0851 136.77 13.0756 136.665 13.0901C136.56 13.0887 136.458 13.1204 136.373 13.1805C136.258 13.2439 136.154 13.3231 136.062 13.4155C135.113 14.4099 134.419 15.2235 133.981 15.6755C133.543 16.1275 133.288 16.4349 132.959 16.8146L132.065 17.8632C131.791 18.1706 131.572 18.4599 131.39 18.6949C131.207 18.93 131.097 19.0927 131.024 19.165C131.055 18.7694 131.16 18.383 131.335 18.026L131.974 16.5253C132.229 16.001 132.448 15.5128 132.649 15.0247C132.826 14.6777 132.914 14.2925 132.905 13.9037C132.905 13.6144 132.667 13.4698 132.32 13.4698C131.671 13.5269 131.045 13.7377 130.495 14.0845C130.248 14.9747 129.918 15.8403 129.509 16.67C129.181 17.2666 128.889 17.7367 128.652 18.0802C128.157 18.8215 127.54 19.4755 126.826 20.0148C126.297 20.3945 125.877 20.521 125.567 20.4126C125.257 20.3041 125.111 19.9606 125.092 19.4001C125.133 18.6451 125.313 17.9038 125.622 17.2124C125.572 17.0413 125.462 16.8937 125.311 16.7965C125.163 16.6738 124.975 16.6095 124.782 16.6157C124.677 16.6152 124.572 16.6358 124.475 16.6762C124.378 16.7166 124.29 16.7759 124.216 16.8508C123.992 17.0812 123.857 17.3817 123.833 17.7005C123.674 18.3969 123.674 19.1195 123.833 19.8159C123.95 20.2761 124.245 20.6722 124.654 20.9188C124.879 21.0133 125.121 21.062 125.366 21.062C125.611 21.062 125.853 21.0133 126.078 20.9188C126.767 20.6748 127.391 20.2792 127.903 19.7617C128.476 19.1389 128.967 18.4463 129.363 17.7005C129.875 16.7784 130.349 15.8925 130.805 14.9343L130.915 14.8619ZM150.993 16.67C150.974 16.8702 150.905 17.0627 150.792 17.2304C150.183 18.2075 149.446 19.101 148.602 19.8882C147.812 20.7343 146.731 21.2568 145.572 21.3527C144.313 21.3527 143.747 20.5753 143.747 19.0204C143.827 18.3028 143.999 17.5981 144.258 16.9231C143.473 18.0621 142.962 18.7311 142.743 19.0204C141.994 19.8882 141.337 20.3222 140.753 20.3222C140.169 20.3222 139.658 19.7074 139.658 18.5141C139.699 17.6187 139.936 16.7428 140.352 15.9467C140.863 14.7896 141.429 14.1387 142.031 14.1387C142.633 14.1387 142.542 14.2291 142.542 14.4099L141.684 15.9287C141.224 16.6122 140.931 17.392 140.826 18.2068C140.826 18.9119 141.045 19.2735 141.465 19.2735C142.177 19.2735 143.473 17.6463 145.335 14.4099C145.481 14.1026 145.718 13.6686 146.028 13.1082C146.092 13.0341 146.17 12.9735 146.258 12.93C146.346 12.8865 146.441 12.861 146.539 12.855C146.642 12.8549 146.744 12.8757 146.838 12.9161C146.932 12.9566 147.017 13.0158 147.087 13.0901C147.17 13.1655 147.236 13.2578 147.281 13.3608C147.325 13.4637 147.346 13.5749 147.343 13.6867C147.343 13.6867 146.941 14.4099 146.156 15.9106C145.498 16.9706 145.086 18.1627 144.951 19.4001C144.951 20.1775 145.335 20.5753 146.065 20.5753C146.888 20.4859 147.652 20.1075 148.219 19.5085C148.891 18.8993 149.502 18.2272 150.044 17.5016C150.32 17.1233 150.625 16.7666 150.957 16.4349C150.957 16.4349 151.066 16.4349 151.066 16.6519L150.993 16.67ZM158.678 15.3682L158.44 15.4767C158.165 15.7543 157.942 16.0789 157.783 16.4349H157.436H157.108C157.363 16.1523 157.556 15.8196 157.674 15.4586C157.809 15.0675 157.888 14.6599 157.911 14.2472C157.888 13.9455 157.827 13.6479 157.728 13.3613C157.654 13.027 157.467 12.7276 157.199 12.5115C156.912 12.2815 156.545 12.1713 156.177 12.2041C155.626 12.2563 155.094 12.4359 154.625 12.7285C153.94 13.056 153.368 13.5784 152.983 14.2291C152.862 14.4521 152.79 14.6976 152.771 14.9499C152.752 15.2021 152.787 15.4555 152.873 15.6936C153.087 16.1757 153.461 16.5711 153.932 16.8146C154.492 17.1166 155.119 17.278 155.757 17.2847L155.155 18.1525C154.66 18.8939 154.043 19.5478 153.33 20.0871C152.8 20.4668 152.38 20.5934 152.07 20.4849C151.76 20.3764 151.614 20.0329 151.614 19.4724C151.605 18.6975 151.754 17.9289 152.052 17.2124C152.003 17.0459 151.9 16.8999 151.76 16.7965C151.604 16.6754 151.41 16.6115 151.212 16.6157C151 16.6187 150.797 16.703 150.646 16.8508C150.422 17.0793 150.292 17.3822 150.281 17.7005C150.081 18.3794 150.081 19.1009 150.281 19.7798C150.365 20.0051 150.497 20.2102 150.666 20.3816C150.836 20.553 151.041 20.6868 151.267 20.7742C151.781 20.9505 152.341 20.9505 152.855 20.7742C153.546 20.5078 154.169 20.0942 154.68 19.5628L155.429 18.713C155.812 18.261 156.177 17.7728 156.56 17.2666H156.944L157.528 16.9773C157.374 17.2985 157.246 17.631 157.144 17.9717C157.135 18.1102 157.135 18.2491 157.144 18.3876V18.8396C157.144 20.4306 157.753 21.2262 158.97 21.2262C160.594 21.2262 162.182 19.9786 163.697 17.4655C163.819 17.3028 163.889 17.1075 163.898 16.905C163.898 16.7784 163.898 16.7061 163.807 16.7061C163.715 16.7061 163.46 17.0316 162.985 17.6644C162.534 18.3252 162.008 18.9319 161.416 19.4724C160.901 20.0967 160.161 20.4986 159.353 20.5934C158.55 20.5934 158.148 20.1775 158.148 19.3277C158.149 18.9082 158.263 18.4964 158.477 18.1345C158.678 17.7548 158.915 17.3028 159.152 16.7965C159.243 16.6444 159.311 16.4799 159.353 16.3084C159.361 16.2082 159.347 16.1075 159.313 16.013C159.278 15.9185 159.224 15.8324 159.153 15.7605C159.082 15.6886 158.996 15.6325 158.902 15.596C158.807 15.5596 158.706 15.5435 158.605 15.549L158.678 15.3682ZM156.998 13.3974C157.077 13.4247 157.144 13.4765 157.19 13.545C157.236 13.6135 157.259 13.6949 157.254 13.7771C157.294 14.0226 157.294 14.2729 157.254 14.5184C157.148 14.8283 157.02 15.1303 156.871 15.4224C156.71 15.7595 156.527 16.0856 156.323 16.3988C155.757 16.2601 155.255 15.935 154.899 15.4767C154.585 15.1139 154.41 14.6528 154.406 14.1749C154.42 14.0088 154.474 13.8484 154.563 13.7069C154.652 13.5654 154.773 13.4469 154.918 13.3613C155.596 13.1782 156.32 13.2557 156.944 13.5782L156.998 13.3974Z" fill="#212121"/>
<path d="M27.8765 55C43.2094 55 55.6392 42.6878 55.6392 27.5C55.6392 12.3122 43.2094 0 27.8765 0C12.5436 0 0.11377 12.3122 0.11377 27.5C0.11377 42.6878 12.5436 55 27.8765 55Z" fill="#212121"/>
<path fill-rule="evenodd" clip-rule="evenodd" d="M38.5373 5.91271C38.5036 6.08462 38.4285 6.24591 38.3182 6.3828C37.2638 8.12866 36.3248 9.94049 35.5073 11.8069C35.9617 11.8509 36.4128 11.9234 36.858 12.0238C37.1296 11.5307 37.5027 11.0995 37.9532 10.7582C38.5013 10.3025 39.1908 10.0472 39.9062 10.035C40.6045 10.033 41.2909 10.2139 41.8958 10.5593C42.5314 10.9183 43.0895 11.3975 43.5386 11.9696C44.0411 12.5718 44.4757 13.2265 44.8345 13.9222C45.1041 14.502 45.3121 15.1079 45.4551 15.7303C45.4629 15.8265 45.4629 15.9233 45.4551 16.0195C45.4652 16.0611 45.4652 16.1045 45.4551 16.1461C45.3637 15.999 45.3133 15.8306 45.3091 15.6579C44.9705 14.3855 44.3466 13.2052 43.4838 12.2046C42.9914 11.5849 42.3685 11.0789 41.6585 10.722C41.0708 10.4118 40.406 10.2738 39.742 10.3243C39.1293 10.3842 38.5467 10.6163 38.0627 10.9933C37.6763 11.2757 37.3839 11.666 37.2231 12.1142C38.6974 12.4614 40.1119 13.0219 41.4212 13.7776C42.8342 14.6024 44.0736 15.6889 45.0718 16.9778C46.0328 18.1374 46.8085 19.4362 47.3717 20.8289C47.821 21.9032 48.0743 23.0479 48.1201 24.2099C48.1173 25.0342 48.044 25.8568 47.901 26.6688C48.7694 25.8196 49.5019 24.8441 50.0731 23.776C50.2989 23.3214 50.4881 22.8498 50.639 22.3657C50.712 22.0764 50.858 21.9318 51.077 21.9318C51.4238 21.9318 51.5699 22.1487 51.5516 22.5827V22.7092C51.3447 26.3253 46.958 29.9413 38.3913 33.5574C39.3734 34.9751 40.44 36.3335 41.5855 37.6254L42.1149 37.1553C43.8749 35.1847 45.3102 32.9515 46.3678 30.538C49.0875 28.3683 43.8489 36.0886 42.5894 37.4808L41.9506 38.1316L42.9727 39.2165L43.3195 38.8549C47.3352 34.4614 47.9193 30.773 47.8463 30.2306C47.9558 30.2306 47.6637 29.7605 47.8463 29.7967C48.4486 29.2362 48.7042 33.4127 43.8306 39.0899C43.6952 39.2674 43.5489 39.4364 43.3926 39.5961C45.8202 42.0731 47.6272 43.3207 48.8684 43.3207C49.5438 43.3207 49.8723 42.9591 49.8723 42.2358C49.8606 41.9858 49.8239 41.7375 49.7628 41.4946C49.7107 41.2866 49.6741 41.0751 49.6533 40.8618C49.6533 40.6086 49.7628 40.4821 50.0001 40.4821C50.2374 40.4821 50.7485 41.0426 50.7485 42.1997C50.7574 42.7581 50.5556 43.2997 50.1826 43.7184C50.0019 43.9174 49.7787 44.0742 49.5294 44.1773C49.28 44.2805 49.0106 44.3276 48.7407 44.3151C47.2257 44.3151 45.1813 43.0675 42.5894 40.5544C41.9141 41.2053 41.184 41.8562 40.4538 42.4528H39.6142C40.4356 41.7477 41.257 40.9883 42.0784 40.1928C41.695 39.8131 41.33 39.4334 40.9649 39.0357C37.3143 42.037 32.6233 43.7546 31.9662 45.1648C31.8202 45.4722 31.875 45.6168 32.0575 45.653C33.2622 45.5084 37.3691 42.9952 39.2126 43.0675C39.4238 43.049 39.6364 43.08 39.8332 43.1579C39.8953 43.1839 39.9507 43.2232 39.9957 43.2729C40.0406 43.3226 40.0738 43.3815 40.093 43.4455C40.1122 43.5094 40.1169 43.5768 40.1067 43.6427C40.0965 43.7087 40.0717 43.7716 40.034 43.8269C38.3021 46.1147 35.7577 47.6656 32.9154 48.1662C29.1196 49.1189 25.1877 49.4247 21.2883 49.0702L20.6312 48.8894C25.596 49.9561 39.5777 47.0813 39.1761 43.6823C39.1761 43.5919 39.0666 43.5376 38.9206 43.5376C37.4421 43.6461 32.6416 46.0327 31.6194 45.9785H31.5829C31.0718 45.9785 30.652 45.3818 31.8202 44.4597C34.86 42.7146 37.7862 40.7823 40.5816 38.674C39.5412 37.5169 38.5008 36.2875 37.4786 34.9314C35.8598 37.788 33.7681 40.3549 31.2909 42.5251C28.8921 44.7706 25.7542 46.0806 22.4565 46.2135C21.2698 46.2607 20.0972 45.9451 19.0979 45.3095C18.6026 44.999 18.1985 44.5649 17.9262 44.0508C17.6538 43.5367 17.5229 42.9606 17.5464 42.3805C17.5464 40.3555 18.9154 38.1316 21.6716 35.6908C24.4278 33.25 26.6729 32.0748 28.6442 32.0748C28.918 32.0748 29.0458 32.1833 29.0458 32.3821C29.0458 32.581 28.845 32.7076 28.4252 32.8522C25.3744 33.9186 22.6782 35.7949 20.6312 38.2763C19.5396 39.459 18.8947 40.9793 18.8059 42.5794C18.8059 44.3874 19.8463 45.3095 21.9271 45.3095C23.5662 45.2122 25.1696 44.7947 26.6451 44.081C28.1206 43.3673 29.4389 42.3716 30.5243 41.151C32.8191 38.8155 34.7562 36.1597 36.2739 33.2681C35.3679 32.2015 34.6742 30.9745 34.2296 29.652C34.2513 29.2023 34.3373 28.7579 34.4851 28.3322C34.6494 27.7355 34.8502 27.4462 35.051 27.4462C35.2518 27.4462 35.2153 27.4462 35.27 27.6632C35.7915 28.9973 36.4013 30.2958 37.0953 31.5504C38.3611 28.8751 39.0984 25.9845 39.2674 23.0347C39.2674 21.6606 38.8476 20.9735 38.0079 20.9735C37.4956 21.0103 37.0002 21.1718 36.566 21.4436C36.2709 21.6172 35.9662 21.7741 35.6533 21.9137C35.4525 21.9137 35.3613 21.7871 35.3613 21.534C35.3613 21.2809 35.8541 20.7746 36.8398 20.3588C37.4972 20.1325 38.1881 20.0164 38.8841 20.0153C40.3626 20.0153 41.1109 21.0639 41.1109 23.1612C40.9299 26.4683 40.0532 29.7014 38.5373 32.6533C41.818 31.2906 44.8468 29.3965 47.4995 27.0485C47.7553 25.5015 47.6806 23.9185 47.2804 22.4019C46.7225 20.7223 45.8562 19.1592 44.725 17.7914C42.8694 15.2011 40.199 13.2935 37.1318 12.3673C36.9688 12.9592 36.9688 13.5835 37.1318 14.1754C37.3308 14.8353 37.6596 15.4498 38.0992 15.9834C38.5274 16.5 39.0248 16.9562 39.5777 17.3394C40.2348 17.7497 40.9176 18.1181 41.622 18.4423C42.2967 18.7584 42.9547 19.1084 43.5933 19.4909C44.101 19.8204 44.551 20.2295 44.9258 20.7023C45.6337 21.5659 46.1598 22.5611 46.4733 23.6293C46.7868 24.6975 46.8812 25.817 46.7511 26.9219C46.7511 27.1389 46.7511 27.2835 46.6598 27.3558C46.5934 27.234 46.5618 27.0964 46.5686 26.9581C46.5089 25.3048 45.9281 23.7115 44.9076 22.4019C44.553 21.9437 44.1131 21.557 43.6116 21.2628C42.95 20.8711 42.2676 20.515 41.5673 20.1961C40.8058 19.8459 40.0681 19.4473 39.3587 19.0028C38.7407 18.5906 38.1924 18.0841 37.7342 17.5021C37.3501 17.0208 37.0424 16.4843 36.8215 15.9111C36.5891 15.3356 36.4654 14.7228 36.4565 14.103C36.4177 13.5234 36.5113 12.9425 36.7302 12.4035C36.2739 12.4035 35.8176 12.2227 35.3795 12.1685C34.0896 15.2123 33.0162 18.3418 32.167 21.534C33.4812 21.9318 34.1383 22.3115 34.1383 22.655C34.1383 22.9985 33.9741 23.0889 33.6455 23.0889L32.8606 22.7996L31.9115 22.4019C31.185 25.0831 30.7626 27.8363 30.652 30.6103C30.652 31.5866 30.798 32.0748 31.0718 32.0748C31.4793 32.0101 31.8559 31.8204 32.1488 31.5324C32.3826 31.3067 32.6544 31.1232 32.9519 30.99C33.2074 30.99 33.3535 31.1527 33.3535 31.4781C33.3535 31.8036 33.0614 32.1109 32.4956 32.4364C32.0753 32.7284 31.5836 32.9032 31.0718 32.9426C29.9767 32.9426 29.4291 32.0386 29.4291 30.2306C29.5423 27.5101 29.9027 24.8052 30.506 22.1487C28.8043 21.9377 27.0918 21.823 25.3769 21.8052C24.5008 22.8719 23.3509 24.1737 21.9271 25.6925C20.2854 27.5314 18.497 29.2364 16.579 30.7911C14.6065 32.3253 12.1866 33.1877 9.67942 33.25C8.34108 33.3158 7.01672 32.9546 5.90106 32.2194C5.34363 31.8528 4.89334 31.3474 4.59539 30.754C4.29744 30.1606 4.1623 29.4999 4.20354 28.8384C4.22321 27.9636 4.42273 27.102 4.78992 26.3062C5.15711 25.5104 5.68425 24.7971 6.33914 24.2099C7.58795 22.9632 9.15098 22.0705 10.8659 21.6244C15.4291 20.6658 20.0956 20.2771 24.7563 20.4673C26.6546 18.2856 28.559 15.9653 30.4695 13.5064C30.9988 12.7651 31.802 11.6984 32.9154 10.27C32.9567 10.2058 33.0132 10.1525 33.08 10.1147C33.1468 10.0769 33.2218 10.0558 33.2987 10.0531C33.682 10.0531 33.8645 10.2339 33.8645 10.5774C33.8639 10.6863 33.8323 10.7929 33.7733 10.8848C33.609 11.1379 32.7146 12.3312 31.0718 14.5008C29.2465 16.9959 27.6585 19.0209 26.4538 20.5396C27.8912 20.6269 29.3194 20.8264 30.725 21.1362C31.4956 17.6244 32.5454 14.1784 33.8645 10.8305C34.2174 9.95063 34.8259 8.68501 35.6898 7.03369C36.0158 6.65958 36.4127 6.35245 36.858 6.12968C37.2624 5.84159 37.7221 5.63854 38.2087 5.53303C38.2619 5.52422 38.3163 5.5278 38.3678 5.54348C38.4193 5.55916 38.4664 5.58651 38.5054 5.62335C38.5444 5.6602 38.5742 5.70554 38.5924 5.75576C38.6106 5.80599 38.6167 5.85973 38.6103 5.91271H38.5373ZM32.8789 49.5222C36.4989 48.5078 39.927 46.9138 43.0275 44.8032C41.2022 46.2677 32.5686 49.4679 32.8789 49.5222ZM28.1331 6.12968C27.8411 6.12968 32.3861 7.75689 34.3939 9.05867C32.5708 7.60465 30.4249 6.60072 28.1331 6.12968ZM17.4004 11.5537C16.2186 11.5637 15.0489 11.7905 13.9506 12.2227C13.1004 12.5371 12.3329 13.0377 11.7055 13.6872C11.0882 14.2933 10.6523 15.0567 10.446 15.893C10.2454 16.7281 10.3027 17.6036 10.6103 18.4061C10.8783 19.1115 11.3889 19.7005 12.0523 20.0695C12.7525 20.4239 13.5294 20.6039 14.3157 20.5938C15.0777 20.6531 15.8436 20.5483 16.5608 20.2865C17.6808 19.9437 18.6929 19.3211 19.4995 18.4785C19.7368 18.153 19.8463 17.9541 19.8098 17.8637C19.6612 17.9543 19.5361 18.0781 19.4447 18.2253C19.1453 18.6049 18.7808 18.9292 18.3678 19.1836C17.8548 19.5435 17.2964 19.8353 16.7068 20.0514C15.9629 20.3367 15.1673 20.4659 14.3704 20.4311C13.6169 20.4124 12.8811 20.2006 12.2348 19.8164C11.6775 19.4663 11.2387 18.9588 10.9752 18.3594C10.7117 17.76 10.6355 17.0962 10.7563 16.4535C10.8771 15.8944 11.134 15.373 11.5047 14.9347C11.8912 14.4884 12.3399 14.0988 12.8372 13.7776C13.3228 13.4559 13.8432 13.1891 14.3887 12.9821C15.3031 12.6262 16.2602 12.3892 17.2361 12.2769C17.1441 13.0485 17.2444 13.8307 17.5282 14.5551C17.8499 15.465 18.5 16.2249 19.3535 16.6885C20.2692 17.1687 21.2927 17.4113 22.3287 17.3936C23.4023 17.3942 24.4667 17.198 25.4682 16.8151C26.3738 16.5071 27.2106 16.0282 27.9323 15.4048C28.5786 14.8584 29.0694 14.1541 29.3561 13.3618C29.6387 12.6531 29.6387 11.8646 29.3561 11.156C29.1228 10.5778 28.7147 10.0853 28.1879 9.74572C27.6903 9.40774 27.1105 9.20795 26.5086 9.16715C25.9518 9.12711 25.3926 9.20097 24.8658 9.38411C24.111 9.65769 23.4475 10.1334 22.9493 10.7582C22.4391 11.3841 22.1053 12.1327 21.9819 12.9278C20.7388 12.1609 19.3329 11.6905 17.875 11.5537C18.3452 10.6703 18.995 9.89297 19.7835 9.27062C20.572 8.64827 21.4821 8.19443 22.4565 7.9377C23.8796 7.39929 25.4044 7.17535 26.924 7.28153C28.4437 7.38771 29.9216 7.82146 31.2544 8.55242C31.6742 8.75131 31.9115 8.85979 31.9662 8.82363C32.021 8.78747 31.7654 8.58858 31.5099 8.46202C30.9275 8.09617 30.3172 7.77579 29.6846 7.50377C28.9421 7.19297 28.1722 6.95086 27.3847 6.78056C26.5099 6.59167 25.6146 6.5127 24.7198 6.54552C23.7843 6.58441 22.8606 6.76741 21.9819 7.08793C21.3016 7.33956 20.6525 7.66712 20.0471 8.06426C19.558 8.38903 19.1158 8.77832 18.7329 9.22139C18.417 9.5654 18.147 9.94823 17.9297 10.3604C17.7437 10.7305 17.5791 11.1108 17.4369 11.4995L17.4004 11.5537ZM25.4682 16.6343C26.2544 16.3384 26.983 15.9103 27.622 15.3687C28.2273 14.8922 28.6987 14.2696 28.991 13.5606C29.2675 12.9221 29.2806 12.2017 29.0275 11.5537C28.8446 11.0476 28.4981 10.6154 28.0419 10.3243C27.5937 10.0335 27.0835 9.84947 26.5515 9.78674C26.0194 9.724 25.48 9.78422 24.9754 9.96268C24.2084 10.2255 23.5231 10.6801 22.9858 11.2825C22.5544 11.802 22.2709 12.4262 22.1644 13.0906C22.3331 13.1517 22.4878 13.2455 22.6194 13.3666C22.7511 13.4877 22.857 13.6336 22.931 13.7957C22.9856 13.9663 22.9856 14.1494 22.931 14.32C22.931 14.5008 22.8033 14.6093 22.6755 14.6455C22.5477 14.6816 22.4747 14.6455 22.3104 14.537C22.1564 14.4195 22.0367 14.2635 21.9636 14.085C21.8621 13.7858 21.8621 13.462 21.9636 13.1629C21.2638 12.7935 20.5039 12.5487 19.7185 12.4397C19.0324 12.3163 18.3339 12.2738 17.6377 12.3131C17.4752 13.1442 17.5576 14.0041 17.875 14.7901C18.0852 15.3157 18.4314 15.7771 18.8789 16.128C19.4002 16.5237 19.9959 16.8126 20.6312 16.9778C21.3756 17.1676 22.1464 17.2348 22.9128 17.1767C23.7876 17.1145 24.6486 16.9256 25.4682 16.6162V16.6343ZM23.5334 21.9318H22.3287C18.5238 21.8128 14.7182 22.1466 10.9936 22.9262C9.56938 23.3057 8.264 24.033 7.19702 25.0416C6.64124 25.5125 6.19156 26.0938 5.87711 26.7479C5.56267 27.402 5.39049 28.1142 5.37173 28.8384C5.35403 29.2741 5.45904 29.7061 5.67501 30.0861C5.89098 30.466 6.20941 30.779 6.59468 30.99C7.36842 31.4549 8.26427 31.6815 9.16834 31.6409C11.4997 31.5976 13.7615 30.8466 15.6481 29.4893C17.5321 28.1135 19.269 26.5505 20.8319 24.8246C21.7081 23.8664 22.6207 22.9081 23.5334 21.8414V21.9318Z" fill="white"/>
</svg>
