<svg width="17" height="17" viewBox="0 0 17 17" fill="none" xmlns="http://www.w3.org/2000/svg">
<path d="M11.2689 8.5871L17 12.2102V4.81097L11.2689 8.5871Z" fill="#DBDBDB"/>
<path d="M0 4.81097V12.2102L5.73113 8.5871L0 4.81097Z" fill="#DBDBDB"/>
<path d="M15.9375 2.65625H1.06249C0.532298 2.65625 0.111548 3.0515 0.0318604 3.56044L8.49999 9.13963L16.9681 3.56044C16.8884 3.0515 16.4677 2.65625 15.9375 2.65625Z" fill="#DBDBDB"/>
<path d="M10.2956 9.22885L8.79218 10.2191C8.70293 10.2775 8.602 10.3062 8.5 10.3062C8.398 10.3062 8.29706 10.2775 8.20781 10.2191L6.70437 9.22778L0.0339966 13.447C0.115809 13.9517 0.534434 14.3437 1.0625 14.3437H15.9375C16.4656 14.3437 16.8842 13.9517 16.966 13.447L10.2956 9.22885Z" fill="#DBDBDB"/>
</svg>
