<svg width="11" height="18" viewBox="0 0 11 18" fill="none" xmlns="http://www.w3.org/2000/svg">
<path fill-rule="evenodd" clip-rule="evenodd" d="M0.692617 5.00079C1.07371 5.00079 1.38523 5.28264 1.38523 5.62605V19.3751C1.38523 19.7194 1.07371 20 0.692617 20C0.31152 20 0 19.7194 0 19.3751V5.62605C0 5.28264 0.31152 5.00079 0.692617 5.00079ZM17.3074 10C17.6885 10 18 10.2815 18 10.6256V19.3744C18 19.7185 17.6885 19.9997 17.3074 19.9997C16.9263 19.9997 16.6148 19.7185 16.6148 19.3744V10.6256C16.6148 10.2815 16.9263 10 17.3074 10ZM8.99983 0C9.38092 0 9.69244 0.280908 9.69244 0.624941V19.3751C9.69244 19.7191 9.38092 19.9997 8.99983 19.9997C8.61873 19.9997 8.30721 19.7191 8.30721 19.3751V0.624941C8.30721 0.280908 8.61873 0 8.99983 0Z" fill="#911C2C"/>
</svg>
